# xmcd
#
# Track frame offsets:
# 150
# 12975
# 26310
# 44227
# 53272
# 69142
# 84232
# 102502
# 121979
# 132449
# 150981
# 168163
#
# Disc length: 2446 seconds
#
#
# Revision: 0
# Processed by: cddbd v1.5.1PL2 Copyright (c) Steve Scherf et al.
# Submitted via: FreeRIP 2.942 
#
DISCID=88098c0c
DTITLE=Various Artist - Raw Blues
DYEAR=1900
DGENRE=Blues
TTITLE0=Spann, Otis - Pretty Girls Everywhere
TTITLE1=Mayall, John - Burn Out Your Blind Eyes
TTITLE2=Dupree, Champion Jack - Calcutta Blues
TTITLE3=Mayall, John and Steve Anglo - Long Night
TTITLE4=Spann, Otis - Country Boy
TTITLE5=Mayall, John and Eric Clapton - Lonely Years
TTITLE6=Mayall, John and Peter Green - Evil Woman Blues
TTITLE7=Spann, Otis - My Home In The Desert
TTITLE8=Mayall, John - Milkman Strut
TTITLE9=Dupree, Champion Jack - 24 Hours
TTITLE10=Mayall, John and Eric Clapton - Bernard Jenkins
TTITLE11=Spann, Otis - You Gonna Need My Help
EXTD=LP Rip\nLondon Records - 1975?
EXTT0=
EXTT1=
EXTT2=
EXTT3=
EXTT4=
EXTT5=
EXTT6=
EXTT7=
EXTT8=
EXTT9=
EXTT10=
EXTT11=
PLAYORDER=
